<svg width="40" height="40" viewBox="0 0 40 40" fill="none" xmlns="http://www.w3.org/2000/svg">
<path fill-rule="evenodd" clip-rule="evenodd" d="M32.4996 2.5V7.5H37.4996V10.8333H32.4996V15.8167C32.4996 15.8167 29.1829 15.8333 29.1663 15.8167V10.8333H24.1663C24.1663 10.8333 24.1829 7.51667 24.1663 7.5H29.1663V2.5H32.4996ZM29.1667 34.1667H5.83333V10.8333H20.8333V7.5H5.83333C4 7.5 2.5 9 2.5 10.8333V34.1667C2.5 36 4 37.5 5.83333 37.5H29.1667C31 37.5 32.5 36 32.5 34.1667V19.1667H29.1667V34.1667ZM16.1837 28.8834L12.9171 24.9501L8.33374 30.8334H26.6671L20.7671 22.9834L16.1837 28.8834Z" fill="#737373"/>
</svg>
