<svg width="40" height="40" viewBox="0 0 40 40" fill="none" xmlns="http://www.w3.org/2000/svg">
<path fill-rule="evenodd" clip-rule="evenodd" d="M14.9997 20.0007C18.2163 20.0007 20.833 17.384 20.833 14.1673C20.833 10.9507 18.2163 8.33398 14.9997 8.33398C11.783 8.33398 9.16634 10.9507 9.16634 14.1673C9.16634 17.384 11.783 20.0007 14.9997 20.0007ZM3.33301 28.7507C3.33301 24.8673 11.0997 22.9173 14.9997 22.9173C18.8997 22.9173 26.6663 24.8673 26.6663 28.7507V31.6673H3.33301V28.7507ZM14.9997 26.2507C12.0163 26.2507 8.63301 27.3673 7.23301 28.334H22.7663C21.3663 27.3673 17.983 26.2507 14.9997 26.2507ZM17.4997 14.1673C17.4997 12.784 16.383 11.6673 14.9997 11.6673C13.6163 11.6673 12.4997 12.784 12.4997 14.1673C12.4997 15.5507 13.6163 16.6673 14.9997 16.6673C16.383 16.6673 17.4997 15.5507 17.4997 14.1673ZM26.733 23.0173C28.6663 24.4173 29.9997 26.284 29.9997 28.7507V31.6673H36.6663V28.7507C36.6663 25.384 30.833 23.4673 26.733 23.0173ZM30.833 14.1673C30.833 17.384 28.2163 20.0007 24.9997 20.0007C24.0997 20.0007 23.2663 19.784 22.4997 19.4173C23.5497 17.934 24.1663 16.1173 24.1663 14.1673C24.1663 12.2173 23.5497 10.4007 22.4997 8.91732C23.2663 8.55065 24.0997 8.33398 24.9997 8.33398C28.2163 8.33398 30.833 10.9507 30.833 14.1673Z" fill="#FFCD33"/>
</svg>
