<svg width="32" height="32" viewBox="0 0 32 32" fill="none" xmlns="http://www.w3.org/2000/svg">
<path fill-rule="evenodd" clip-rule="evenodd" d="M25.3333 29.3327C26.8 29.3327 28 28.1327 28 26.666V7.99935C28 6.53268 26.8 5.33268 25.3333 5.33268H24V2.66602H21.3333V5.33268H10.6667V2.66602H8V5.33268H6.66667C5.18667 5.33268 4.01333 6.53268 4.01333 7.99935L4 26.666C4 28.1327 5.18667 29.3327 6.66667 29.3327H25.3333ZM12 14.666H9.33333V17.3327H12V14.666ZM6.66667 10.666H25.3333V7.99935H6.66667V10.666ZM25.3333 13.3327V26.666H6.66667V13.3327H25.3333ZM20 17.3327H22.6667V14.666H20V17.3327ZM17.3333 17.3327H14.6667V14.666H17.3333V17.3327Z" fill="black" fill-opacity="0.54"/>
</svg>
