<svg width="240" height="240" viewBox="0 0 240 240" fill="none" xmlns="http://www.w3.org/2000/svg">
<path d="M121.637 40.7119L119.904 37.4383L121.301 33.4159V30.9727L117.034 33.4351V35.8975L118.867 39.0703C118.896 39.1191 118.94 39.1577 118.992 39.1807L121.637 40.7119Z" fill="#90CAF9"/>
<path opacity="0.2" d="M121.637 40.7119L119.904 37.4383L121.301 33.4159V30.9727L117.034 33.4351V35.8975L118.867 39.0703C118.896 39.1191 118.94 39.1577 118.992 39.1807L121.637 40.7119Z" fill="#151515"/>
<path d="M131.818 11.4039C131.796 10.9623 131.671 10.532 131.452 10.1476C131.234 9.76329 130.928 9.43563 130.56 9.19105L129.518 8.59105C129.123 8.38997 128.685 8.28516 128.242 8.28516C127.798 8.28516 127.36 8.38997 126.965 8.59105L110.981 17.8215C110.609 18.0642 110.3 18.391 110.078 18.7754C109.856 19.1598 109.728 19.5911 109.704 20.0343V37.5975C109.724 38.0455 109.85 38.4824 110.072 38.8721C110.294 39.2618 110.606 39.5932 110.981 39.8391L112.023 40.4391C112.419 40.6402 112.857 40.745 113.302 40.745C113.746 40.745 114.184 40.6402 114.581 40.4391L119.712 37.4391L121.541 40.6071C121.569 40.6482 121.607 40.681 121.652 40.7021C121.696 40.7232 121.746 40.7317 121.795 40.7268C121.845 40.7219 121.892 40.7037 121.931 40.6741C121.971 40.6446 122.002 40.6048 122.021 40.5591L123.941 34.9767L130.56 31.1991C130.932 30.9566 131.241 30.6299 131.463 30.2454C131.685 29.8609 131.813 29.4295 131.837 28.9863L131.818 11.4039Z" fill="#B6FFD9"/>
<path opacity="0.2" d="M109.704 37.5981C109.724 38.0462 109.85 38.4831 110.072 38.8728C110.294 39.2625 110.606 39.5939 110.981 39.8397L112.023 40.4397C112.383 40.6192 112.778 40.7209 113.181 40.7382C113.583 40.7556 113.985 40.6882 114.36 40.5405C113.76 40.7709 113.299 40.4301 113.299 39.7005V22.1133C113.315 21.6691 113.444 21.2362 113.674 20.8557L110.079 18.7773C109.849 19.158 109.72 19.5908 109.704 20.0349V37.5981Z" fill="#151515"/>
<path opacity="0.3" d="M131.779 11.0391C131.63 10.4967 131.131 10.3239 130.546 10.6599L114.581 19.8999C114.199 20.1328 113.887 20.4644 113.678 20.8599L110.083 18.7863C110.293 18.3932 110.603 18.0622 110.981 17.8263L126.941 8.59111C127.337 8.38998 127.776 8.28516 128.22 8.28516C128.665 8.28516 129.103 8.38998 129.499 8.59111L130.56 9.19111C130.877 9.40188 131.148 9.67405 131.357 9.99148C131.566 10.3089 131.71 10.6652 131.779 11.0391Z" fill="white"/>
<path d="M127.877 15.5803C127.699 15.5053 127.509 15.4661 127.316 15.4649C127.124 15.4636 126.933 15.5004 126.755 15.5731C126.576 15.6458 126.414 15.7529 126.277 15.8884C126.14 16.0239 126.031 16.1851 125.957 16.3627L120.413 29.5579L119.093 28.2715C118.956 28.1303 118.792 28.0181 118.611 27.9414C118.43 27.8647 118.235 27.8252 118.039 27.8252C117.842 27.8251 117.647 27.8646 117.466 27.9412C117.285 28.0178 117.121 28.13 116.984 28.2711C116.847 28.4122 116.74 28.5794 116.669 28.7628C116.598 28.9461 116.564 29.1418 116.57 29.3384C116.576 29.535 116.622 29.7283 116.704 29.907C116.786 30.0857 116.903 30.2461 117.048 30.3787L119.928 33.1579C120.063 33.2914 120.222 33.397 120.398 33.4686C120.573 33.5403 120.761 33.5766 120.95 33.5755C121.049 33.5752 121.147 33.5656 121.243 33.5467C121.477 33.4991 121.696 33.3951 121.881 33.2437C122.066 33.0923 122.211 32.8981 122.304 32.6779L128.683 17.5003C128.758 17.3214 128.796 17.1296 128.795 16.9359C128.795 16.7422 128.756 16.5505 128.681 16.3719C128.606 16.1933 128.496 16.0314 128.358 15.8955C128.22 15.7597 128.057 15.6525 127.877 15.5803Z" fill="#FAFAFA"/>
<path d="M128.366 79.2428C130.286 79.142 133.81 79.0221 136.354 82.1565C138.144 84.3597 143.021 89.6541 145.786 93.1533C147.638 91.2333 152.131 86.5533 152.866 85.1853C153.559 83.9043 154.122 82.5567 154.546 81.1628C154.818 80.3472 155.015 79.5085 155.136 78.6572C155.274 77.6147 155.292 76.5598 155.189 75.5133C155.165 74.5533 156.576 75.0333 157.109 76.5597C157.384 77.3928 157.523 78.2647 157.522 79.1421L159.802 78.0333C160.632 77.6493 163.258 76.7228 163.512 78.206C163.565 78.5372 163.464 78.902 163.608 79.2044C163.688 79.3435 163.785 79.4724 163.896 79.5884C164.08 79.8296 164.197 80.1157 164.233 80.4171C164.269 80.7184 164.224 81.024 164.102 81.3021C163.974 81.543 163.923 81.8183 163.958 82.0893C164.027 82.3673 164.038 82.6563 163.992 82.9388C163.903 83.1543 163.792 83.3602 163.661 83.5533C163.536 83.8297 163.458 84.1249 163.43 84.4269C163.406 84.7289 163.34 85.0262 163.234 85.31C162.946 85.9676 162.149 86.1165 161.539 86.3325C160.608 86.6477 159.693 87.0097 158.798 87.4172C157.334 88.3772 153.384 95.5245 149.386 100.104C148.013 101.673 146.784 102.652 145.483 102.504C144.432 102.48 143.126 101.544 141.874 100.44C137.914 96.9597 131.52 90.206 131.52 90.206C128.813 86.9612 128.064 81.4172 128.366 79.2428Z" fill="#FFA8A7"/>
<path d="M158.592 79.2773C157.776 79.5653 157.57 80.1173 157.632 81.2981C157.67 81.9989 157.502 83.3045 156.758 83.8469C157.119 83.7868 157.454 83.6196 157.718 83.3669C158.069 82.9829 158.165 82.9397 158.371 83.1413C158.524 83.2776 158.706 83.3763 158.904 83.4293C158.781 83.5811 158.71 83.7685 158.701 83.9638C158.692 84.1591 158.747 84.3521 158.856 84.5141C159.24 85.1093 160.886 85.0709 162.216 84.3317C162.216 84.3317 160.056 85.0805 159.528 84.4037C159 83.7269 160.128 82.8197 160.968 82.5557C160.968 82.5557 158.875 83.1269 158.53 82.4453C158.184 81.7637 159.038 81.2117 160.272 80.8565C160.272 80.8565 158.539 81.2261 158.222 80.6453C157.853 79.9589 158.366 79.5221 158.592 79.2773Z" fill="#F28F8F"/>
<path d="M134.083 98.4287C133.978 99.855 133.955 101.286 134.016 102.715C134.141 104.261 133.714 104.784 133.099 105.259C123.101 113.467 111.955 105.537 111.955 105.537C110.64 104.861 111.216 103.43 110.794 101.217C110.314 98.5295 109.934 96.3263 109.138 94.2335C109.138 94.2335 115.21 85.8527 111.346 79.9007L118.392 79.4207L124.992 79.3295L128.352 79.2383C131.587 82.8383 134.64 86.9567 135.418 88.9055C136.195 90.8543 137.462 94.4015 134.083 98.4287Z" fill="#B6FFD9"/>
<path opacity="0.75" d="M134.083 98.4287C133.978 99.855 133.955 101.286 134.016 102.715C134.141 104.261 133.714 104.784 133.099 105.259C123.101 113.467 111.955 105.537 111.955 105.537C110.64 104.861 111.216 103.43 110.794 101.217C110.314 98.5295 109.934 96.3263 109.138 94.2335C109.138 94.2335 115.21 85.8527 111.346 79.9007L118.392 79.4207L124.992 79.3295L128.352 79.2383C131.587 82.8383 134.64 86.9567 135.418 88.9055C136.195 90.8543 137.462 94.4015 134.083 98.4287Z" fill="white"/>
<path d="M114.211 54.1383C110.803 52.6119 106.934 55.2567 106.704 60.7527C106.488 65.8263 108.691 69.9399 112.07 71.1543C115.315 72.3255 116.006 70.5207 116.006 70.5207L114.211 54.1383Z" fill="#263238"/>
<path d="M110.957 59.04C111.787 55.6368 114.883 52.5312 119.789 51.84C121.622 51.5904 125.069 51.0192 128.837 53.28C129.389 53.6071 129.841 54.0784 130.146 54.6433C130.45 55.2082 130.595 55.8454 130.565 56.4864C131.154 56.5355 131.71 56.7761 132.15 57.1713C132.589 57.5665 132.887 58.0947 132.998 58.6752C133.157 59.5968 132.816 60.5184 132.744 61.4496C132.677 61.864 132.772 62.2882 133.008 62.6352C133.069 62.7174 133.147 62.786 133.236 62.8367C133.325 62.8873 133.424 62.9188 133.526 62.9291C133.628 62.9395 133.731 62.9286 133.829 62.897C133.926 62.8654 134.016 62.8138 134.093 62.7456C134.085 62.892 134.039 63.0338 133.96 63.1574C133.881 63.281 133.771 63.3822 133.642 63.4512C133.384 63.5888 133.094 63.6566 132.802 63.648C132.28 63.653 131.764 63.5363 131.294 63.3072C131.362 64.2048 130.814 65.3232 130.608 66.216C130.368 67.1952 130.13 68.1775 129.893 69.1631C129.682 70.0239 129.472 70.8848 129.264 71.7456C129.217 72.1226 129.127 72.4931 128.995 72.8496C128.995 72.8496 116.995 76.4832 116.885 74.3952C115.786 70.6608 108.854 67.68 110.957 59.04Z" fill="#37474F"/>
<path d="M116.933 79.646L116.851 70.43C116.851 70.43 115.723 71.678 113.914 70.4972C112.291 69.4364 111.514 67.0172 112.531 65.6972C113.256 64.7372 115.627 64.1372 116.674 66.014C116.674 66.014 119.443 65.726 122.914 62.9564C126.384 60.1868 127.142 57.8588 129.35 57.4844C130.44 58.2236 131.582 60.518 131.813 66.7148C131.981 71.3036 130.051 73.6028 129.043 74.4476C128.227 75.134 127.123 75.2828 125.275 75.0812L125.314 79.4348C127.598 83.5196 121.555 83.198 116.933 79.646Z" fill="#FFA8A7"/>
<path d="M125.28 76.3198C125.28 76.3198 125.678 76.219 125.808 76.507C125.938 76.795 125.28 78.0238 125.28 78.0238V76.3198Z" fill="#90CAF9"/>
<path d="M116.16 79.5686C116.717 79.535 116.501 77.5238 116.16 76.6886C116.376 76.5722 116.618 76.5113 116.863 76.5113C117.109 76.5113 117.35 76.5722 117.566 76.6886C118.306 77.0966 118.046 77.9654 118.675 78.3686C119.304 78.7718 119.923 78.119 120.451 78.3398C120.979 78.5606 121.075 79.4582 121.57 79.3958C122.064 79.3334 123.01 78.527 123.437 78.6518C123.864 78.7766 124.373 79.1318 124.714 78.8678C125.054 78.6038 124.968 77.6534 125.29 77.591C125.611 77.5286 126.043 76.5158 125.29 76.319C125.29 76.319 126.005 76.0358 126.091 76.751C126.178 77.4662 126.643 80.4854 126.643 80.4854C126.402 81.1651 125.961 81.7556 125.377 82.179C124.794 82.6024 124.095 82.8387 123.374 82.8566C120.816 82.943 118.032 82.1126 116.16 79.5686Z" fill="#B6FFD9"/>
<path opacity="0.55" d="M116.16 79.5686C116.717 79.535 116.501 77.5238 116.16 76.6886C116.376 76.5722 116.618 76.5113 116.863 76.5113C117.109 76.5113 117.35 76.5722 117.566 76.6886C118.306 77.0966 118.046 77.9654 118.675 78.3686C119.304 78.7718 119.923 78.119 120.451 78.3398C120.979 78.5606 121.075 79.4582 121.57 79.3958C122.064 79.3334 123.01 78.527 123.437 78.6518C123.864 78.7766 124.373 79.1318 124.714 78.8678C125.054 78.6038 124.968 77.6534 125.29 77.591C125.611 77.5286 126.043 76.5158 125.29 76.319C125.29 76.319 126.005 76.0358 126.091 76.751C126.178 77.4662 126.643 80.4854 126.643 80.4854C126.402 81.1651 125.961 81.7556 125.377 82.179C124.794 82.6024 124.095 82.8387 123.374 82.8566C120.816 82.943 118.032 82.1126 116.16 79.5686Z" fill="white"/>
<path d="M116.448 79.2428C116.99 79.766 119.544 82.2428 123.168 81.6428C126.792 81.0428 126.456 79.2428 126.456 79.2428L126.365 78.638C126.365 78.638 126.235 80.51 123.096 80.9468C119.846 81.4268 117.274 79.2428 116.501 78.4316L116.448 79.2428Z" fill="#455A64"/>
<path d="M122.683 81.7156L121.44 88.3204L122.51 87.9124L123.154 81.6724L124.944 87.4324H126.451L123.6 81.5332C123.532 81.4748 123.451 81.4326 123.364 81.4099C123.277 81.3872 123.186 81.3845 123.097 81.4021C123.009 81.4196 122.926 81.457 122.854 81.5113C122.782 81.5656 122.724 81.6354 122.683 81.7156Z" fill="#37474F"/>
<path d="M123.101 80.9473C122.174 81.5089 120.821 83.6977 120.768 84.1537C120.906 84.4555 121.143 84.7005 121.44 84.8475C121.738 84.9944 122.077 85.0342 122.4 84.9601L123.158 81.6673L123.101 80.9473Z" fill="#455A64"/>
<path d="M123.173 81.6529C123.173 81.6529 124.09 83.4481 124.651 84.5905C124.651 84.5905 125.842 84.4321 125.842 83.3713C125.21 82.2917 124.25 81.4424 123.101 80.9473L123.173 81.6529Z" fill="#455A64"/>
<path d="M124.018 65.2807C124.031 65.3911 124.022 65.5031 123.992 65.6101C123.962 65.7172 123.91 65.8171 123.841 65.9042C123.772 65.9913 123.686 66.0638 123.589 66.1174C123.491 66.171 123.384 66.2048 123.274 66.2167C123.05 66.2367 122.827 66.1671 122.654 66.0232C122.481 65.8792 122.373 65.6726 122.352 65.4487C122.339 65.3385 122.347 65.2268 122.378 65.1201C122.408 65.0133 122.459 64.9137 122.529 64.827C122.598 64.7403 122.684 64.6683 122.781 64.6152C122.879 64.562 122.986 64.5288 123.096 64.5175C123.207 64.5069 123.318 64.5183 123.425 64.5509C123.531 64.5836 123.63 64.6369 123.715 64.7078C123.801 64.7787 123.872 64.8658 123.923 64.9641C123.975 65.0624 124.007 65.17 124.018 65.2807Z" fill="#263238"/>
<path d="M130.733 63.1198L128.942 62.0206C129.012 61.9005 129.104 61.7956 129.215 61.7123C129.326 61.629 129.452 61.5689 129.587 61.5358C129.721 61.5026 129.861 61.4969 129.998 61.5192C130.135 61.5415 130.265 61.5912 130.382 61.6654C130.618 61.8149 130.787 62.0502 130.852 62.3216C130.917 62.5931 130.875 62.8793 130.733 63.1198Z" fill="#263238"/>
<path d="M123.84 69.7637L126.571 70.6325C126.521 70.8139 126.435 70.9833 126.318 71.1306C126.201 71.278 126.055 71.4001 125.89 71.4898C125.725 71.5794 125.543 71.6347 125.355 71.6524C125.168 71.67 124.979 71.6497 124.8 71.5925C124.432 71.4743 124.125 71.2165 123.946 70.8744C123.766 70.5324 123.728 70.1335 123.84 69.7637Z" fill="#B16668"/>
<path d="M125.568 71.5918C125.557 71.2569 125.416 70.9395 125.175 70.7066C124.934 70.4737 124.612 70.3436 124.277 70.3438C124.112 70.3425 123.949 70.3735 123.797 70.435C123.841 70.6974 123.956 70.9427 124.131 71.1435C124.305 71.3443 124.532 71.4928 124.786 71.5726C125.039 71.6534 125.311 71.6601 125.568 71.5918Z" fill="#F28F8F"/>
<path d="M130.287 64.8999C130.299 65.0102 130.29 65.122 130.26 65.2288C130.229 65.3355 130.178 65.4352 130.109 65.5222C130.039 65.6091 129.954 65.6816 129.857 65.7354C129.76 65.7892 129.653 65.8234 129.543 65.8359C129.318 65.856 129.095 65.7865 128.921 65.6427C128.748 65.4988 128.638 65.2922 128.616 65.0679C128.603 64.9576 128.613 64.8458 128.643 64.7391C128.674 64.6323 128.725 64.5326 128.794 64.4456C128.863 64.3587 128.949 64.2863 129.046 64.2324C129.143 64.1786 129.25 64.1444 129.36 64.1319C129.584 64.1131 129.807 64.183 129.98 64.3267C130.153 64.4703 130.263 64.6761 130.287 64.8999Z" fill="#263238"/>
<path d="M126.101 64.498L126.466 68.986L128.842 68.122L126.101 64.498Z" fill="#F28F8F"/>
<path d="M125.28 75.0767C123.317 74.9327 119.251 74.0207 118.56 72.5039C118.854 73.2846 119.382 73.9553 120.072 74.4239C121.325 75.3839 125.309 76.3439 125.309 76.3439L125.28 75.0767Z" fill="#F28F8F"/>
<path d="M116.64 65.5825L116.779 68.1217C117.255 68.1005 117.702 67.8914 118.024 67.5404C118.345 67.1894 118.514 66.7251 118.493 66.2497L118.359 63.7969L116.64 65.5825Z" fill="#37474F"/>
<path d="M114.979 69.3067C115.634 69.3067 116.165 68.7759 116.165 68.1211C116.165 67.4664 115.634 66.9355 114.979 66.9355C114.325 66.9355 113.794 67.4664 113.794 68.1211C113.794 68.7759 114.325 69.3067 114.979 69.3067Z" fill="#455A64"/>
<path d="M118.675 72.2264C115.56 72.2264 114.994 69.3464 114.797 68.3144C114.785 68.2552 114.797 68.1937 114.83 68.1432C114.863 68.0928 114.915 68.0577 114.974 68.0456C115.034 68.0335 115.095 68.0455 115.146 68.0788C115.196 68.1121 115.231 68.164 115.243 68.2232C115.589 69.9992 116.429 72.284 119.712 71.6696C119.771 71.6583 119.831 71.6707 119.881 71.704C119.93 71.7372 119.964 71.7887 119.976 71.8472C119.987 71.907 119.974 71.9689 119.94 72.0192C119.906 72.0696 119.853 72.1044 119.794 72.116C119.425 72.1878 119.051 72.2248 118.675 72.2264Z" fill="#37474F"/>
<path d="M121.57 72.105L120.427 72.3258C120.27 72.3554 120.108 72.3215 119.975 72.2315C119.843 72.1415 119.752 72.0029 119.722 71.8458C119.706 71.7679 119.707 71.6878 119.723 71.61C119.739 71.5323 119.77 71.4584 119.814 71.3928C119.859 71.3272 119.916 71.2711 119.983 71.2277C120.049 71.1844 120.124 71.1546 120.202 71.1402L121.349 70.9194C121.427 70.9041 121.507 70.9045 121.585 70.9204C121.662 70.9363 121.736 70.9675 121.802 71.0121C121.868 71.0568 121.924 71.114 121.967 71.1805C122.01 71.2469 122.04 71.3214 122.054 71.3994C122.069 71.4776 122.068 71.5579 122.052 71.6357C122.035 71.7135 122.003 71.7872 121.958 71.8528C121.913 71.9183 121.856 71.9743 121.789 72.0176C121.722 72.0609 121.648 72.0906 121.57 72.105Z" fill="#455A64"/>
<path d="M105.187 192.648C104.783 194.23 104.463 195.833 104.227 197.448C103.958 199.258 103.786 200.602 103.19 203.688C102.648 206.506 101.986 208.594 104.059 211.008C105.763 212.986 109.517 213.485 110.606 211.378C111.85 208.978 111.235 205.517 111.086 203.06C110.938 200.602 111.283 199.388 111.293 197.434C111.293 195.711 111.226 195.005 111.149 193.517C109.2 193.373 107.146 192.831 105.187 192.648Z" fill="#37474F"/>
<path d="M124.939 158.156C125.035 163.249 125.227 165.169 126.106 169.282C126.984 173.396 129.542 182.934 129.835 185.698C130.138 188.578 130.315 189.193 129.725 190.124V190.148C129.034 191.218 128.506 192.212 128.597 192.908C128.712 193.738 129.317 194.449 129.816 195.102C130.237 195.716 130.598 196.37 130.891 197.055C131.693 198.649 132.048 200.415 132.437 202.124C132.534 202.653 132.695 203.169 132.917 203.66C133.742 205.316 135.758 206.06 137.645 206.358C139.531 206.655 141.547 206.785 143.357 206.214C144.12 205.974 144.797 205.609 144.854 204.726C144.912 203.842 144.346 203.396 143.184 202.484C142.611 202.043 142.071 201.562 141.566 201.044C141.199 200.668 140.887 200.241 140.64 199.777C139.681 198.04 138.857 196.231 138.178 194.367C137.467 192.659 137.037 190.846 136.906 189.001C136.8 186.884 136.392 163.796 136.589 157.028C137.122 144.318 133.018 112.023 133.018 112.023L133.238 111.495L133.339 110.137C133.339 110.137 131.856 112.484 124.819 112.311C120.664 112.149 116.531 111.619 112.469 110.727C111.533 113.262 109.138 114.274 107.53 119.022C105.653 124.551 104.914 140.996 105.73 158.55C104.222 165.817 105.101 169.11 105.029 172.926C104.933 177.946 104.914 178.455 105.091 183.198C105.25 187.273 105.23 190.345 105.168 192.649C105.082 195.846 103.93 201.01 104.371 203.468C105.038 207.159 109.478 208.503 110.131 204.342C110.539 201.745 110.846 196.018 111.168 193.182C111.542 189.903 112.022 187.201 112.781 183.174C113.539 179.146 116.338 166.772 117.384 159.279C118.094 154.201 120.053 143.842 121.258 137.617C121.958 141.154 124.574 153.812 124.915 158.156" fill="#FFA8A7"/>
<path d="M130.368 204.092L131.04 204C131.04 201.965 130.848 200.108 131.347 199.138L130.315 196.666L130.368 204.092Z" fill="#263238"/>
<path d="M128.448 194.881C128.64 196.268 129.499 197.679 129.638 200.42C129.737 201.589 129.746 202.763 129.667 203.934L130.368 204.092L130.31 196.647L128.448 194.881Z" fill="#263238"/>
<path d="M144.682 205.59C144.682 205.59 144.682 206.406 144.317 206.68C143.952 206.953 143.222 207.779 139.517 207.669C135.811 207.558 134.472 206.709 133.171 205.619C131.87 204.529 131.448 201.616 131.222 200.243C130.776 197.574 129.581 196.201 128.462 194.881C128.271 194.445 128.219 193.961 128.314 193.494C128.314 193.494 130.824 193.873 132.25 197.113C133.675 200.353 135.36 203.521 138.389 204.337C140.459 204.881 142.561 205.299 144.682 205.59Z" fill="#263238"/>
<path d="M128.563 191.448C129.043 190.536 129.523 190.268 130.027 189.48C130.622 189.96 131.059 190.607 131.28 191.338C131.53 192.048 132.24 195.543 133.2 198.312C133.934 200.396 135.096 201.476 136.666 202.008C137.655 202.338 138.708 202.423 139.738 202.258C141.658 201.951 141.178 200.621 141.178 200.621C141.658 201.202 143.525 202.604 144.643 203.636C145.282 204.226 145.018 205.148 144.566 205.752C144.043 206.232 142.81 207.14 138.182 206.612C134.069 206.132 133.061 204.351 132.648 203.54C132.205 202.349 131.884 201.118 131.688 199.863C131.416 198.482 130.89 197.164 130.138 195.975C130.042 195.821 129.946 195.682 129.854 195.562C129.541 195.138 129.206 194.729 128.851 194.338C128.554 194.012 128.328 193.858 128.232 193.546C128.075 192.83 128.193 192.081 128.563 191.448Z" fill="#37474F"/>
<path d="M104.64 172.585C104.395 167.919 103.68 165.154 105.336 158.607C105.446 144.207 104.746 124.796 106.229 119.156C108.235 111.476 112.094 108.26 111.989 105.538C115.382 106.995 119.025 107.785 122.717 107.866C129.754 108.044 133.133 105.26 133.133 105.26C133.219 106.868 134.395 111.879 135.053 118.292C136.406 131.362 137.102 148.282 137.011 158.021C136.949 164.77 137.011 173.588 136.766 179.54C134.846 180.865 130.949 181.801 128.683 180.543C127.421 175.263 126.571 173.823 125.347 168.063C124.685 164.948 124.21 162.097 124.646 158.141C124.109 153.985 122.102 143.213 121.406 139.676C121.406 139.676 118.147 154.205 117.437 159.284C116.39 166.777 113.87 178.57 112.958 182.549C111.485 183.548 107.333 183.476 105.091 181.695C104.88 176.948 104.885 177.601 104.64 172.585Z" fill="#455A64"/>
<path d="M110.88 108.701C114.785 110.578 119.076 111.512 123.408 111.428C130.541 111.265 133.656 108.98 133.656 108.98C133.354 107.233 133.123 105.941 133.085 105.26C133.085 105.26 129.725 108.044 122.669 107.866C118.977 107.785 115.335 106.995 111.941 105.538C111.984 106.474 111.547 107.458 110.88 108.701Z" fill="#37474F"/>
<path d="M121.378 139.681L123.672 128.809C123.672 128.809 128.275 127.167 130.838 124.926C130.838 124.926 129.485 127.715 125.266 129.687L122.866 142.22L124.358 156.332L121.378 139.681Z" fill="#37474F"/>
<path d="M142.762 100.373L123.317 99.8594L117.552 121.709L136.037 121.714L142.762 100.373Z" fill="#96FFC9"/>
<path opacity="0.2" d="M142.762 100.373L123.317 99.8594L117.552 121.709L136.037 121.714L142.762 100.373Z" fill="#151515"/>
<path opacity="0.15" d="M126.408 113.314C126.485 113.794 126.125 114.37 125.179 115.038C124.411 115.57 123.85 116.578 122.616 116.756C120.096 117.121 118.886 116.655 118.886 116.655L119.674 113.67L126.408 113.314Z" fill="#151515"/>
<path opacity="0.15" d="M137.069 102.164C137.069 102.164 137.141 101.861 137.227 101.487C137.314 101.113 136.176 100.777 134.679 100.729L131.799 100.642C130.301 100.594 129.015 100.863 128.919 101.237L128.755 101.909L137.069 102.164Z" fill="#151515"/>
<path d="M138.418 99.8409C138.475 99.6105 138.014 99.4137 137.386 99.4041H136.253C136.253 99.4041 136.594 97.9401 134.074 97.7721C131.554 97.6041 131.006 99.2121 131.006 99.2121H129.792C129.125 99.2121 128.52 99.3897 128.438 99.6153L128.294 100.023L138.312 100.287L138.418 99.8409Z" fill="#263238"/>
<path d="M137.04 100.21C136.119 100.167 135.739 100.176 135.6 100.752C135.507 101.134 135.433 101.52 135.379 101.909L130.944 101.794C130.944 101.794 131.16 100.968 131.232 100.642C131.304 100.316 131.151 100.061 130.445 100.042L130.383 99.7539L137.328 99.9939L137.04 100.21Z" fill="#263238"/>
<path d="M137.189 102.265C137.189 102.265 137.261 101.962 137.347 101.588C137.434 101.213 136.296 100.877 134.803 100.829L131.923 100.743C130.426 100.7 129.139 100.964 129.043 101.338L128.88 102.015L137.189 102.265Z" fill="#37474F"/>
<path d="M120.893 109.095C120.869 109.176 120.84 109.287 120.84 109.287C120.913 109.322 120.99 109.346 121.07 109.359C122.082 109.512 123.105 109.575 124.128 109.546C125.021 109.508 125.918 109.421 126.811 109.335C126.989 109.301 127.171 109.311 127.344 109.364C127.514 109.458 127.645 109.61 127.714 109.792C127.782 109.974 127.784 110.174 127.718 110.357C127.575 110.718 127.388 111.059 127.162 111.375C126.811 111.98 126.682 112.671 126.317 113.261C125.006 115.301 122.693 116.098 117.226 114.701C115.651 114.298 113.909 113.396 111.898 112.935C107.779 111.975 104.261 111.495 101.054 109.964C97.5793 108.298 97.9825 107.295 98.4049 104.53C98.8849 101.309 100.776 94.4499 102.754 87.9363C104.856 81.0147 107.112 80.1411 111.346 79.8867C114.994 84.9699 110.328 93.3939 110.328 93.3939L106.747 103.8C106.747 103.8 111.648 106.863 115.229 107.684C115.788 107.871 116.372 107.973 116.962 107.986C118.157 107.909 120.086 106.863 121.464 106.92L120.893 109.095Z" fill="#FFA8A7"/>
</svg>
