<svg width="40" height="40" viewBox="0 0 40 40" fill="none" xmlns="http://www.w3.org/2000/svg">
<path fill-rule="evenodd" clip-rule="evenodd" d="M20 20.0007C23.2167 20.0007 25.8333 17.384 25.8333 14.1673C25.8333 10.9507 23.2167 8.33398 20 8.33398C16.7833 8.33398 14.1667 10.9507 14.1667 14.1673C14.1667 17.384 16.7833 20.0007 20 20.0007ZM8.33333 25.0007V20.0007H13.3333V16.6673H8.33333V11.6673H5V16.6673H0V20.0007H5V25.0007H8.33333ZM20 22.9173C16.1 22.9173 8.33333 24.8673 8.33333 28.7507V31.6673H31.6667V28.7507C31.6667 24.8673 23.9 22.9173 20 22.9173ZM20 26.2507C17.0167 26.2507 13.6333 27.3673 12.2333 28.334H27.7667C26.3667 27.3673 22.9833 26.2507 20 26.2507ZM22.5 14.1673C22.5 12.784 21.3833 11.6673 20 11.6673C18.6167 11.6673 17.5 12.784 17.5 14.1673C17.5 15.5507 18.6167 16.6673 20 16.6673C21.3833 16.6673 22.5 15.5507 22.5 14.1673ZM28.3333 20.0007C31.55 20.0007 34.1667 17.384 34.1667 14.1673C34.1667 10.9507 31.55 8.33398 28.3333 8.33398C27.9333 8.33398 27.5333 8.36732 27.15 8.45065C28.4167 10.0173 29.1667 12.0007 29.1667 14.1673C29.1667 16.334 28.3833 18.3007 27.1167 19.8673C27.5167 19.9507 27.9167 20.0007 28.3333 20.0007ZM35 28.7507C35 26.484 33.8667 24.7173 32.2 23.3673C35.9333 24.1507 40 25.934 40 28.7507V31.6673H35V28.7507Z" fill="#00DC6A"/>
</svg>
