<svg width="40" height="40" viewBox="0 0 40 40" fill="none" xmlns="http://www.w3.org/2000/svg">
<path fill-rule="evenodd" clip-rule="evenodd" d="M25.0003 19.9993C28.6837 19.9993 31.667 17.016 31.667 13.3327C31.667 9.64935 28.6837 6.66602 25.0003 6.66602C21.317 6.66602 18.3337 9.64935 18.3337 13.3327C18.3337 17.016 21.317 19.9993 25.0003 19.9993ZM25.0003 9.99935C26.8337 9.99935 28.3337 11.4993 28.3337 13.3327C28.3337 15.166 26.8337 16.666 25.0003 16.666C23.167 16.666 21.667 15.166 21.667 13.3327C21.667 11.4993 23.167 9.99935 25.0003 9.99935ZM11.667 29.9993C11.667 25.566 20.5503 23.3327 25.0003 23.3327C29.4503 23.3327 38.3337 25.566 38.3337 29.9993V33.3327H11.667V29.9993ZM15.0003 29.9993C15.367 28.7993 20.517 26.666 25.0003 26.666C29.5003 26.666 34.667 28.816 35.0003 29.9993H15.0003ZM10.0003 19.9993V24.9993H6.66699V19.9993H1.66699V16.666H6.66699V11.666H10.0003V16.666H15.0003V19.9993H10.0003Z" fill="#23C4FF"/>
</svg>
