<svg width="32" height="32" viewBox="0 0 32 32" fill="none" xmlns="http://www.w3.org/2000/svg">
<path fill-rule="evenodd" clip-rule="evenodd" d="M16.0003 2.66602C10.8403 2.66602 6.66699 6.83935 6.66699 11.9993C6.66699 18.9993 16.0003 29.3327 16.0003 29.3327C16.0003 29.3327 25.3337 18.9993 25.3337 11.9993C25.3337 6.83935 21.1603 2.66602 16.0003 2.66602ZM9.33366 11.9993C9.33366 8.31935 12.3203 5.33268 16.0003 5.33268C19.6803 5.33268 22.667 8.31935 22.667 11.9993C22.667 15.8393 18.827 21.586 16.0003 25.1727C13.227 21.6127 9.33366 15.7993 9.33366 11.9993ZM12.667 11.9993C12.667 10.1584 14.1594 8.66602 16.0003 8.66602C17.1912 8.66602 18.2916 9.30135 18.8871 10.3327C19.4825 11.364 19.4825 12.6347 18.8871 13.666C18.2916 14.6974 17.1912 15.3327 16.0003 15.3327C14.1594 15.3327 12.667 13.8403 12.667 11.9993Z" fill="black" fill-opacity="0.54"/>
</svg>
