<svg width="40" height="40" viewBox="0 0 40 40" fill="none" xmlns="http://www.w3.org/2000/svg">
<path fill-rule="evenodd" clip-rule="evenodd" d="M20.0003 6.66602C16.317 6.66602 13.3337 9.64935 13.3337 13.3327C13.3337 17.016 16.317 19.9993 20.0003 19.9993C23.6837 19.9993 26.667 17.016 26.667 13.3327C26.667 9.64935 23.6837 6.66602 20.0003 6.66602ZM23.3337 13.3327C23.3337 11.4993 21.8337 9.99935 20.0003 9.99935C18.167 9.99935 16.667 11.4993 16.667 13.3327C16.667 15.166 18.167 16.666 20.0003 16.666C21.8337 16.666 23.3337 15.166 23.3337 13.3327ZM30.0003 29.9993C29.667 28.816 24.5003 26.666 20.0003 26.666C15.517 26.666 10.3837 28.7993 10.0003 29.9993H30.0003ZM6.66699 29.9993C6.66699 25.566 15.5503 23.3327 20.0003 23.3327C24.4503 23.3327 33.3337 25.566 33.3337 29.9993V33.3327H6.66699V29.9993Z" fill="#EC255A"/>
</svg>
