<svg width="32" height="32" viewBox="0 0 32 32" fill="none" xmlns="http://www.w3.org/2000/svg">
<path fill-rule="evenodd" clip-rule="evenodd" d="M15.987 2.66602C8.62699 2.66602 2.66699 8.63935 2.66699 15.9993C2.66699 23.3594 8.62699 29.3327 15.987 29.3327C23.3603 29.3327 29.3337 23.3594 29.3337 15.9993C29.3337 8.63935 23.3603 2.66602 15.987 2.66602ZM16.0003 26.666C10.107 26.666 5.33366 21.8927 5.33366 15.9993C5.33366 10.106 10.107 5.33268 16.0003 5.33268C21.8937 5.33268 26.667 10.106 26.667 15.9993C26.667 21.8927 21.8937 26.666 16.0003 26.666ZM14.667 9.33268H16.667V16.3327L22.667 19.8927L21.667 21.5327L14.667 17.3327V9.33268Z" fill="black" fill-opacity="0.54"/>
</svg>
